# xmcd CD database file
#
# Track frame offsets:
#	150
#	13115
#	28350
#	41707
#	58640
#	73747
#	89667
#	106715
#	126057
#	144927
#	160965
#	178580
#	197680
#	215087
#	233052
#
# Disc length: 3326 seconds
#
# Revision: 0
# Processed by: cddbd v1.5.1PL0 Copyright (c) Steve Scherf et al.
# Submitted via: CDex 1.51
#
DISCID=d80cfc0f
DTITLE=Various Artist - SUPER EURO TRAIN disk1
DYEAR=2001
DGENRE=Eurodance
TTITLE0=UFO -- PINK DRAGON
TTITLE1=SYNCHRONIZED LOVE -- TAPP
TTITLE2=I BELIEVE IN MIRACLES -- S.W.A.K
TTITLE3=BURNING LOVE -- EXTREME TIMES
TTITLE4=ONE NIGHT HEAVEN -- TROPICAL BOY
TTITLE5=NIGHT WALKER -- WOOKIE
TTITLE6=ANGEL -- GANGURO SISTERS
TTITLE7=アイムソーリーヒゲソーリー -- BIRTHDAY
TTITLE8=私の彼は石油王 -- BIRTHDAY
TTITLE9=MY HEART WILL GO ON ・・ -- PLATINUM CLUB
TTITLE10=WINTER FANTASY -- TROPICAL GIRL
TTITLE11=HOLD YOU TIGHT -- DOLPHINES
TTITLE12=BANANA -- PRINCE de GAL
TTITLE13=FIRE -- NIGHT CRUSING
TTITLE14=FOOTLOSE -- JAMBO MAN
EXTD=YEAR: 2001
EXTT0=
EXTT1=
EXTT2=
EXTT3=
EXTT4=
EXTT5=
EXTT6=
EXTT7=
EXTT8=
EXTT9=
EXTT10=
EXTT11=
EXTT12=
EXTT13=
EXTT14=
PLAYORDER=
